<svg width="62" height="62" viewBox="0 0 62 62" fill="none" xmlns="http://www.w3.org/2000/svg">
  <circle cx="31" cy="31" r="31" fill="#15152e"/>
  <g transform="translate(15, 11)">
    <path d="M16 4 C8 4 4 8 4 14 C4 18 6 22 10 24 L10 32 C6 30 2 26 2 20 C2 14 4 8 10 4" stroke="#ffffff" stroke-width="3.5" fill="none" stroke-linecap="round" stroke-linejoin="round"/>
    <path d="M14 4 C22 4 26 8 26 14 C26 18 24 22 20 24 L20 32 C24 30 28 26 28 20 C28 14 26 8 20 4" stroke="#ffffff" stroke-width="3.5" fill="none" stroke-linecap="round" stroke-linejoin="round"/>
    <path d="M10 24 L20 24" stroke="#ffffff" stroke-width="3.5" stroke-linecap="round"/>
    <path d="M10 32 L20 32" stroke="#ffffff" stroke-width="3.5" stroke-linecap="round"/>
  </g>
</svg>